# xmcd
#
# Track frame offsets:
#	150
#	21321
#	37701
#	52292
#	73062
#	91604
#	109114
#	124376
#	158659
#	200434
#	225929
#	252809
#	262481
#
# Disc length: 3890 seconds
#
# Revision: 1
# Processed by: cddbd v1.5.2PL0 Copyright (c) Steve Scherf et al.
# Submitted via: audiograbber 1.83.01
#
DISCID=af0f300d
DTITLE=God Save The Kings
DYEAR=2007
DGENRE=
TTITLE0=The Birthday Party - King ink
TTITLE1=The Stranglers - Waltzinblack
TTITLE2=Scritti Politti - Asylums in Jerusalem
TTITLE3=Vice Squad - Last rockers
TTITLE4=Cabaret Voltaire - Just fascination
TTITLE5=Brian Eno - Deep blue day
TTITLE6=Cocteau Twins - Amelia
TTITLE7=Nick Cave - Knockin on Joe
TTITLE8=David Sylvian - Before the bullfight
TTITLE9=Crime And The City Solution - Six bells chime
TTITLE10=Dead Can Dance - Cantara
TTITLE11=The Ramones - Take it as it comes
TTITLE12=Barry Adamson - Checkpoint Charlie
EXTD=
EXTT0=
EXTT1=
EXTT2=
EXTT3=
EXTT4=
EXTT5=
EXTT6=
EXTT7=
EXTT8=
EXTT9=
EXTT10=
EXTT11=
EXTT12=
PLAYORDER=
